<?xml version="1.0" encoding="UTF-8" standalone="no"?>
<svg width="64" height="64" viewBox="0 0 64 64" xmlns="http://www.w3.org/2000/svg">
  <!-- 背景 -->
  <circle cx="32" cy="32" r="30" fill="#444444" opacity="0.8"/>
  
  <!-- 齿轮外圈 -->
  <path d="M32,14 L35,14 L36,19 C37.7,19.4 39.3,20 40.8,20.9 L45,18 L47.1,20.1 L44.2,24.3 C45.1,25.7 45.7,27.3 46.1,29 L51,30 L51,34 L46.1,35 C45.7,36.7 45.1,38.3 44.2,39.7 L47.1,43.9 L45,46 L40.8,43.1 C39.3,44 37.7,44.6 36,45 L35,50 L32,50 L29,50 L28,45 C26.3,44.6 24.7,44 23.2,43.1 L19,46 L16.9,43.9 L19.8,39.7 C18.9,38.3 18.3,36.7 17.9,35 L13,34 L13,30 L17.9,29 C18.3,27.3 18.9,25.7 19.8,24.3 L16.9,20.1 L19,18 L23.2,20.9 C24.7,20 26.3,19.4 28,19 L29,14 L32,14 Z" 
        fill="#4f9aff" stroke="#ffffff" stroke-width="1.5"/>
  
  <!-- 中心圆 -->
  <circle cx="32" cy="32" r="8" fill="#333333" stroke="#ffffff" stroke-width="1.5"/>
  
  <!-- 反光线 -->
  <circle cx="32" cy="32" r="6" fill="none" stroke="#555555" stroke-width="1"/>
</svg> 